<?xml version="1.0" encoding="UTF-8"?>
<svg xmlns="http://www.w3.org/2000/svg" width="96" height="48" viewBox="0 0 96 48">
  <defs>
    <style id="current-color-scheme" type="text/css">
      .ColorScheme-Highlight { color:#d63bac; }
      .ColorScheme-Background { color:#d8cdd9; }
    </style>
  </defs>

  <!-- Active 3x3 FrameSvg: hot-pink center with hard Win9x bevel. -->
  <g id="decoration-topleft"><rect width="8" height="8" fill="#15101f"/><path d="M2 8V2h6" fill="none" stroke="#fff3ff" stroke-width="2"/></g>
  <g id="decoration-top" transform="translate(8 0)"><rect width="32" height="8" fill="#15101f"/><rect y="2" width="32" height="4" fill="#d63bac"/><rect y="2" width="32" height="1" fill="#fff3ff"/></g>
  <g id="decoration-topright" transform="translate(40 0)"><rect width="8" height="8" fill="#15101f"/><path d="M0 2h6v6" fill="none" stroke="#56445e" stroke-width="2"/></g>
  <g id="decoration-left" transform="translate(0 8)"><rect width="8" height="32" fill="#15101f"/><rect x="2" width="4" height="32" fill="#d63bac"/><rect x="2" width="1" height="32" fill="#fff3ff"/></g>
  <g id="decoration-center" transform="translate(8 8)"><rect class="ColorScheme-Highlight" width="32" height="32" fill="currentColor"/></g>
  <g id="decoration-right" transform="translate(40 8)"><rect width="8" height="32" fill="#15101f"/><rect x="2" width="4" height="32" fill="#8f276f"/><rect x="5" width="1" height="32" fill="#56445e"/></g>
  <g id="decoration-bottomleft" transform="translate(0 40)"><rect width="8" height="8" fill="#15101f"/><path d="M2 0v6h6" fill="none" stroke="#fff3ff" stroke-width="2"/></g>
  <g id="decoration-bottom" transform="translate(8 40)"><rect width="32" height="8" fill="#15101f"/><rect y="2" width="32" height="4" fill="#8f276f"/><rect y="5" width="32" height="1" fill="#56445e"/></g>
  <g id="decoration-bottomright" transform="translate(40 40)"><rect width="8" height="8" fill="#15101f"/><path d="M0 6h6V0" fill="none" stroke="#56445e" stroke-width="2"/></g>

  <!-- Inactive 3x3 FrameSvg. -->
  <g id="decoration-inactive-topleft" transform="translate(48 0)"><rect width="8" height="8" fill="#15101f"/><path d="M2 8V2h6" fill="none" stroke="#d8cdd9" stroke-width="2"/></g>
  <g id="decoration-inactive-top" transform="translate(56 0)"><rect width="32" height="8" fill="#15101f"/><rect y="2" width="32" height="4" fill="#56445e"/><rect y="2" width="32" height="1" fill="#d8cdd9"/></g>
  <g id="decoration-inactive-topright" transform="translate(88 0)"><rect width="8" height="8" fill="#15101f"/><path d="M0 2h6v6" fill="none" stroke="#24162b" stroke-width="2"/></g>
  <g id="decoration-inactive-left" transform="translate(48 8)"><rect width="8" height="32" fill="#15101f"/><rect x="2" width="4" height="32" fill="#56445e"/><rect x="2" width="1" height="32" fill="#d8cdd9"/></g>
  <g id="decoration-inactive-center" transform="translate(56 8)"><rect width="32" height="32" fill="#56445e"/></g>
  <g id="decoration-inactive-right" transform="translate(88 8)"><rect width="8" height="32" fill="#15101f"/><rect x="2" width="4" height="32" fill="#24162b"/></g>
  <g id="decoration-inactive-bottomleft" transform="translate(48 40)"><rect width="8" height="8" fill="#15101f"/><path d="M2 0v6h6" fill="none" stroke="#d8cdd9" stroke-width="2"/></g>
  <g id="decoration-inactive-bottom" transform="translate(56 40)"><rect width="32" height="8" fill="#15101f"/><rect y="2" width="32" height="4" fill="#24162b"/></g>
  <g id="decoration-inactive-bottomright" transform="translate(88 40)"><rect width="8" height="8" fill="#15101f"/><path d="M0 6h6V0" fill="none" stroke="#24162b" stroke-width="2"/></g>
</svg>

