<?xml version="1.0" encoding="UTF-8"?>
<svg xmlns="http://www.w3.org/2000/svg" width="96" height="48" viewBox="0 0 96 48">
  <defs>
    <style id="current-color-scheme" type="text/css">
      .ColorScheme-Highlight { color:#1239d0; }
      .ColorScheme-Background { color:#c0c0ca; }
    </style>
  </defs>

  <!-- Active 3x3 FrameSvg: classic navy face with a bright-blue raised edge. -->
  <g id="decoration-topleft"><rect width="8" height="8" fill="#080812"/><path d="M2 8V2h6" fill="none" stroke="#f6f4fa" stroke-width="2"/></g>
  <g id="decoration-top" transform="translate(8 0)"><rect width="32" height="8" fill="#080812"/><rect y="2" width="32" height="4" fill="#1239d0"/><rect y="2" width="32" height="1" fill="#f6f4fa"/></g>
  <g id="decoration-topright" transform="translate(40 0)"><rect width="8" height="8" fill="#080812"/><path d="M0 2h6v6" fill="none" stroke="#404050" stroke-width="2"/></g>
  <g id="decoration-left" transform="translate(0 8)"><rect width="8" height="32" fill="#080812"/><rect x="2" width="4" height="32" fill="#1239d0"/><rect x="2" width="1" height="32" fill="#f6f4fa"/></g>
  <g id="decoration-center" transform="translate(8 8)"><rect width="32" height="32" fill="#000080"/></g>
  <g id="decoration-right" transform="translate(40 8)"><rect width="8" height="32" fill="#080812"/><rect x="2" width="4" height="32" fill="#000080"/><rect x="5" width="1" height="32" fill="#404050"/></g>
  <g id="decoration-bottomleft" transform="translate(0 40)"><rect width="8" height="8" fill="#080812"/><path d="M2 0v6h6" fill="none" stroke="#f6f4fa" stroke-width="2"/></g>
  <g id="decoration-bottom" transform="translate(8 40)"><rect width="32" height="8" fill="#080812"/><rect y="2" width="32" height="4" fill="#000080"/><rect y="5" width="32" height="1" fill="#404050"/></g>
  <g id="decoration-bottomright" transform="translate(40 40)"><rect width="8" height="8" fill="#080812"/><path d="M0 6h6V0" fill="none" stroke="#404050" stroke-width="2"/></g>

  <!-- Inactive 3x3 FrameSvg. -->
  <g id="decoration-inactive-topleft" transform="translate(48 0)"><rect width="8" height="8" fill="#080812"/><path d="M2 8V2h6" fill="none" stroke="#c0c0ca" stroke-width="2"/></g>
  <g id="decoration-inactive-top" transform="translate(56 0)"><rect width="32" height="8" fill="#080812"/><rect y="2" width="32" height="4" fill="#404050"/><rect y="2" width="32" height="1" fill="#c0c0ca"/></g>
  <g id="decoration-inactive-topright" transform="translate(88 0)"><rect width="8" height="8" fill="#080812"/><path d="M0 2h6v6" fill="none" stroke="#303040" stroke-width="2"/></g>
  <g id="decoration-inactive-left" transform="translate(48 8)"><rect width="8" height="32" fill="#080812"/><rect x="2" width="4" height="32" fill="#404050"/><rect x="2" width="1" height="32" fill="#c0c0ca"/></g>
  <g id="decoration-inactive-center" transform="translate(56 8)"><rect width="32" height="32" fill="#404050"/></g>
  <g id="decoration-inactive-right" transform="translate(88 8)"><rect width="8" height="32" fill="#080812"/><rect x="2" width="4" height="32" fill="#303040"/></g>
  <g id="decoration-inactive-bottomleft" transform="translate(48 40)"><rect width="8" height="8" fill="#080812"/><path d="M2 0v6h6" fill="none" stroke="#c0c0ca" stroke-width="2"/></g>
  <g id="decoration-inactive-bottom" transform="translate(56 40)"><rect width="32" height="8" fill="#080812"/><rect y="2" width="32" height="4" fill="#303040"/></g>
  <g id="decoration-inactive-bottomright" transform="translate(88 40)"><rect width="8" height="8" fill="#080812"/><path d="M0 6h6V0" fill="none" stroke="#303040" stroke-width="2"/></g>
</svg>
