<?xml version="1.0" encoding="UTF-8"?>
<!-- SPDX-License-Identifier: GPL-3.0-or-later -->
<svg xmlns="http://www.w3.org/2000/svg" width="96" height="32" viewBox="0 0 96 32">
  <g id="header-topleft"><rect width="4" height="4" fill="#080812"/><path d="M1 4V1h3" fill="none" stroke="#f6f4fa"/><rect x="2" y="2" width="2" height="2" fill="#ff2c9d"/></g><g id="header-top"><rect x="4" width="40" height="4" fill="#080812"/><rect x="4" y="1" width="40" height="1" fill="#f6f4fa"/><rect x="4" y="2" width="40" height="2" fill="#ff2c9d"/></g><g id="header-topright"><rect x="44" width="4" height="4" fill="#080812"/><rect x="44" y="2" width="2" height="2" fill="#ff2c9d"/></g>
  <g id="header-left"><rect y="4" width="4" height="24" fill="#080812"/><rect x="1" y="4" width="1" height="24" fill="#f6f4fa"/><rect x="2" y="4" width="2" height="24" fill="#ff2c9d"/></g><rect id="header-center" x="4" y="4" width="40" height="24" fill="#000080"/><g id="header-right"><rect x="44" y="4" width="4" height="24" fill="#080812"/><rect x="44" y="4" width="2" height="24" fill="#ff2c9d"/></g>
  <g id="header-bottomleft"><rect y="28" width="4" height="4" fill="#080812"/><rect x="2" y="28" width="2" height="2" fill="#000080"/></g><g id="header-bottom"><rect x="4" y="28" width="40" height="4" fill="#080812"/><rect x="4" y="28" width="40" height="2" fill="#000080"/></g><g id="header-bottomright"><rect x="44" y="28" width="4" height="4" fill="#080812"/></g>

  <g id="footer-topleft"><rect x="48" width="4" height="4" fill="#080812"/><rect x="50" y="2" width="2" height="2" fill="#303040"/></g><g id="footer-top"><rect x="52" width="40" height="4" fill="#080812"/><rect x="52" y="2" width="40" height="2" fill="#303040"/></g><g id="footer-topright"><rect x="92" width="4" height="4" fill="#080812"/></g>
  <g id="footer-left"><rect x="48" y="4" width="4" height="24" fill="#080812"/><rect x="49" y="4" width="1" height="24" fill="#27dcec"/><rect x="50" y="4" width="2" height="24" fill="#303040"/></g><rect id="footer-center" x="52" y="4" width="40" height="24" fill="#303040"/><g id="footer-right"><rect x="92" y="4" width="4" height="24" fill="#080812"/><rect x="94" y="4" width="1" height="24" fill="#000080"/></g>
  <g id="footer-bottomleft"><rect x="48" y="28" width="4" height="4" fill="#080812"/><path d="M49 28v3h3" fill="none" stroke="#27dcec"/></g><g id="footer-bottom"><rect x="52" y="28" width="40" height="4" fill="#080812"/><rect x="52" y="30" width="40" height="1" fill="#ff2c9d"/></g><g id="footer-bottomright"><rect x="92" y="28" width="4" height="4" fill="#080812"/><path d="M92 31h3v-3" fill="none" stroke="#ff2c9d"/></g>
  <rect id="hint-stretch-borders" width="1" height="1" fill="#000"/>
  <rect id="hint-top-margin" width="1" height="5" fill="#000"/><rect id="hint-right-margin" width="5" height="1" fill="#000"/><rect id="hint-bottom-margin" width="1" height="5" fill="#000"/><rect id="hint-left-margin" width="5" height="1" fill="#000"/>
</svg>
