<?xml version="1.0" encoding="UTF-8"?>
<!-- SPDX-License-Identifier: GPL-3.0-or-later -->
<svg xmlns="http://www.w3.org/2000/svg" width="240" height="48" viewBox="0 0 240 48">
  <!-- normal -->
  <g id="normal-topleft"><rect width="4" height="4" fill="#15101f"/><rect x="1" y="1" width="3" height="1" fill="#56445e"/></g>
  <g id="normal-top"><rect x="4" width="40" height="4" fill="#15101f"/><rect x="4" y="1" width="40" height="1" fill="#56445e"/></g>
  <g id="normal-topright"><rect x="44" width="4" height="4" fill="#15101f"/><rect x="44" y="1" width="3" height="1" fill="#56445e"/></g>
  <g id="normal-left"><rect y="4" width="4" height="40" fill="#15101f"/><rect x="1" y="4" width="1" height="40" fill="#56445e"/></g>
  <rect id="normal-center" x="4" y="4" width="40" height="40" fill="#15101f"/>
  <g id="normal-right"><rect x="44" y="4" width="4" height="40" fill="#15101f"/><rect x="46" y="4" width="1" height="40" fill="#24162b"/></g>
  <g id="normal-bottomleft"><rect y="44" width="4" height="4" fill="#15101f"/><rect x="1" y="46" width="3" height="1" fill="#24162b"/></g>
  <g id="normal-bottom"><rect x="4" y="44" width="40" height="4" fill="#15101f"/><rect x="4" y="46" width="40" height="1" fill="#24162b"/></g>
  <g id="normal-bottomright"><rect x="44" y="44" width="4" height="4" fill="#15101f"/><rect x="44" y="46" width="3" height="1" fill="#24162b"/></g>

  <!-- hover -->
  <g id="hover-topleft"><rect x="48" width="4" height="4" fill="#15101f"/><path d="M49 4V1h3" fill="none" stroke="#62dde4"/></g>
  <g id="hover-top"><rect x="52" width="40" height="4" fill="#15101f"/><rect x="52" y="1" width="40" height="1" fill="#62dde4"/></g>
  <g id="hover-topright"><rect x="92" width="4" height="4" fill="#15101f"/><path d="M92 1h3v3" fill="none" stroke="#62dde4"/></g>
  <g id="hover-left"><rect x="48" y="4" width="4" height="40" fill="#15101f"/><rect x="49" y="4" width="1" height="40" fill="#62dde4"/></g>
  <rect id="hover-center" x="52" y="4" width="40" height="40" fill="#24162b"/>
  <g id="hover-right"><rect x="92" y="4" width="4" height="40" fill="#15101f"/><rect x="94" y="4" width="1" height="40" fill="#7241b8"/></g>
  <g id="hover-bottomleft"><rect x="48" y="44" width="4" height="4" fill="#15101f"/><rect x="49" y="46" width="3" height="1" fill="#7241b8"/></g>
  <g id="hover-bottom"><rect x="52" y="44" width="40" height="4" fill="#15101f"/><rect x="52" y="46" width="40" height="1" fill="#7241b8"/></g>
  <g id="hover-bottomright"><rect x="92" y="44" width="4" height="4" fill="#15101f"/><rect x="92" y="46" width="3" height="1" fill="#7241b8"/></g>

  <!-- focus/active -->
  <g id="focus-topleft"><rect x="96" width="4" height="4" fill="#15101f"/><path d="M97 4V1h3" fill="none" stroke="#fff3ff"/><rect x="98" y="2" width="2" height="2" fill="#8f276f"/></g>
  <g id="focus-top"><rect x="100" width="40" height="4" fill="#15101f"/><rect x="100" y="1" width="40" height="1" fill="#fff3ff"/><rect x="100" y="2" width="40" height="2" fill="#8f276f"/></g>
  <g id="focus-topright"><rect x="140" width="4" height="4" fill="#15101f"/><path d="M140 1h3v3" fill="none" stroke="#fff3ff"/><rect x="140" y="2" width="2" height="2" fill="#8f276f"/></g>
  <g id="focus-left"><rect x="96" y="4" width="4" height="40" fill="#15101f"/><rect x="97" y="4" width="1" height="40" fill="#fff3ff"/><rect x="98" y="4" width="2" height="40" fill="#8f276f"/></g>
  <rect id="focus-center" x="100" y="4" width="40" height="40" fill="#8f276f"/>
  <g id="focus-right"><rect x="140" y="4" width="4" height="40" fill="#15101f"/><rect x="142" y="4" width="1" height="40" fill="#d63bac"/></g>
  <g id="focus-bottomleft"><rect x="96" y="44" width="4" height="4" fill="#15101f"/><rect x="98" y="44" width="2" height="2" fill="#8f276f"/></g>
  <g id="focus-bottom"><rect x="100" y="44" width="40" height="4" fill="#15101f"/><rect x="100" y="44" width="40" height="2" fill="#d63bac"/></g>
  <g id="focus-bottomright"><rect x="140" y="44" width="4" height="4" fill="#15101f"/><rect x="140" y="44" width="2" height="2" fill="#d63bac"/></g>

  <!-- attention -->
  <g id="attention-topleft"><rect x="144" width="4" height="4" fill="#15101f"/><path d="M145 4V1h3" fill="none" stroke="#62dde4"/><rect x="146" y="2" width="2" height="2" fill="#d63bac"/></g>
  <g id="attention-top"><rect x="148" width="40" height="4" fill="#15101f"/><rect x="148" y="1" width="40" height="1" fill="#62dde4"/><rect x="148" y="2" width="40" height="2" fill="#d63bac"/></g>
  <g id="attention-topright"><rect x="188" width="4" height="4" fill="#15101f"/><rect x="188" y="2" width="2" height="2" fill="#d63bac"/></g>
  <g id="attention-left"><rect x="144" y="4" width="4" height="40" fill="#15101f"/><rect x="145" y="4" width="1" height="40" fill="#62dde4"/><rect x="146" y="4" width="2" height="40" fill="#d63bac"/></g>
  <rect id="attention-center" x="148" y="4" width="40" height="40" fill="#8f276f"/>
  <g id="attention-right"><rect x="188" y="4" width="4" height="40" fill="#15101f"/><rect x="190" y="4" width="1" height="40" fill="#8f276f"/></g>
  <g id="attention-bottomleft"><rect x="144" y="44" width="4" height="4" fill="#15101f"/><rect x="146" y="44" width="2" height="2" fill="#d63bac"/></g>
  <g id="attention-bottom"><rect x="148" y="44" width="40" height="4" fill="#15101f"/><rect x="148" y="44" width="40" height="2" fill="#8f276f"/></g>
  <g id="attention-bottomright"><rect x="188" y="44" width="4" height="4" fill="#15101f"/><rect x="188" y="44" width="2" height="2" fill="#8f276f"/></g>

  <!-- minimized -->
  <g id="minimized-topleft"><rect x="192" width="4" height="4" fill="#15101f"/><rect x="193" y="1" width="3" height="1" fill="#56445e"/></g>
  <g id="minimized-top"><rect x="196" width="40" height="4" fill="#15101f"/><rect x="196" y="1" width="40" height="1" fill="#56445e"/></g>
  <g id="minimized-topright"><rect x="236" width="4" height="4" fill="#15101f"/><rect x="236" y="1" width="3" height="1" fill="#56445e"/></g>
  <g id="minimized-left"><rect x="192" y="4" width="4" height="40" fill="#15101f"/><rect x="193" y="4" width="1" height="40" fill="#56445e"/></g>
  <rect id="minimized-center" x="196" y="4" width="40" height="40" fill="#15101f" opacity=".75"/>
  <g id="minimized-right"><rect x="236" y="4" width="4" height="40" fill="#15101f"/><rect x="238" y="4" width="1" height="40" fill="#24162b"/></g>
  <g id="minimized-bottomleft"><rect x="192" y="44" width="4" height="4" fill="#15101f"/></g>
  <g id="minimized-bottom"><rect x="196" y="44" width="40" height="4" fill="#15101f"/><rect x="196" y="46" width="40" height="1" fill="#24162b"/></g>
  <g id="minimized-bottomright"><rect x="236" y="44" width="4" height="4" fill="#15101f"/></g>

  <rect id="normal-hint-top-margin" width="1" height="4" fill="#000"/>
  <rect id="normal-hint-right-margin" width="4" height="1" fill="#000"/>
  <rect id="normal-hint-bottom-margin" width="1" height="4" fill="#000"/>
  <rect id="normal-hint-left-margin" width="4" height="1" fill="#000"/>
  <rect id="hint-stretch-borders" width="1" height="1" fill="#000"/>
</svg>
