<?xml version="1.0" encoding="UTF-8"?>
<!-- SPDX-License-Identifier: GPL-3.0-or-later -->
<svg xmlns="http://www.w3.org/2000/svg" width="144" height="36" viewBox="0 0 144 36">
  <g id="hover-topleft"><rect width="3" height="3" fill="#27dcec"/></g><g id="hover-top"><rect x="3" width="30" height="2" fill="#27dcec"/></g><g id="hover-topright"><rect x="33" width="3" height="3" fill="#27dcec"/></g>
  <g id="hover-left"><rect y="3" width="2" height="30" fill="#27dcec"/></g><rect id="hover-center" x="3" y="3" width="30" height="30" fill="#27dcec" opacity=".12"/><g id="hover-right"><rect x="34" y="3" width="2" height="30" fill="#27dcec"/></g>
  <g id="hover-bottomleft"><rect y="33" width="3" height="3" fill="#27dcec"/></g><g id="hover-bottom"><rect x="3" y="34" width="30" height="2" fill="#27dcec"/></g><g id="hover-bottomright"><rect x="33" y="33" width="3" height="3" fill="#27dcec"/></g>

  <g id="selected-topleft"><rect x="36" width="3" height="3" fill="#080812"/><rect x="37" y="1" width="2" height="2" fill="#ff2c9d"/></g><g id="selected-top"><rect x="39" width="30" height="3" fill="#080812"/><rect x="39" y="1" width="30" height="2" fill="#ff2c9d"/></g><g id="selected-topright"><rect x="69" width="3" height="3" fill="#080812"/><rect x="69" y="1" width="2" height="2" fill="#ff2c9d"/></g>
  <g id="selected-left"><rect x="36" y="3" width="3" height="30" fill="#080812"/><rect x="37" y="3" width="2" height="30" fill="#ff2c9d"/></g><rect id="selected-center" x="39" y="3" width="30" height="30" fill="#000080"/><g id="selected-right"><rect x="69" y="3" width="3" height="30" fill="#080812"/><rect x="69" y="3" width="1" height="30" fill="#ff2c9d"/></g>
  <g id="selected-bottomleft"><rect x="36" y="33" width="3" height="3" fill="#080812"/><rect x="37" y="33" width="2" height="1" fill="#000080"/></g><g id="selected-bottom"><rect x="39" y="33" width="30" height="3" fill="#080812"/><rect x="39" y="33" width="30" height="1" fill="#000080"/></g><g id="selected-bottomright"><rect x="69" y="33" width="3" height="3" fill="#080812"/></g>

  <g id="selected+hover-topleft"><rect x="72" width="3" height="3" fill="#27dcec"/><rect x="73" y="1" width="2" height="2" fill="#ff2c9d"/></g><g id="selected+hover-top"><rect x="75" width="30" height="3" fill="#27dcec"/><rect x="75" y="1" width="30" height="2" fill="#ff2c9d"/></g><g id="selected+hover-topright"><rect x="105" width="3" height="3" fill="#27dcec"/><rect x="105" y="1" width="2" height="2" fill="#ff2c9d"/></g>
  <g id="selected+hover-left"><rect x="72" y="3" width="3" height="30" fill="#27dcec"/><rect x="74" y="3" width="1" height="30" fill="#ff2c9d"/></g><rect id="selected+hover-center" x="75" y="3" width="30" height="30" fill="#000080"/><g id="selected+hover-right"><rect x="105" y="3" width="3" height="30" fill="#27dcec"/><rect x="105" y="3" width="1" height="30" fill="#ff2c9d"/></g>
  <g id="selected+hover-bottomleft"><rect x="72" y="33" width="3" height="3" fill="#27dcec"/></g><g id="selected+hover-bottom"><rect x="75" y="33" width="30" height="3" fill="#27dcec"/><rect x="75" y="33" width="30" height="1" fill="#000080"/></g><g id="selected+hover-bottomright"><rect x="105" y="33" width="3" height="3" fill="#27dcec"/></g>

  <g id="normal-topleft"><rect x="108" width="3" height="3" fill="none"/></g><g id="normal-top"><rect x="111" width="30" height="3" fill="none"/></g><g id="normal-topright"><rect x="141" width="3" height="3" fill="none"/></g>
  <g id="normal-left"><rect x="108" y="3" width="3" height="30" fill="none"/></g><rect id="normal-center" x="111" y="3" width="30" height="30" fill="#000" opacity="0"/><g id="normal-right"><rect x="141" y="3" width="3" height="30" fill="none"/></g>
  <g id="normal-bottomleft"><rect x="108" y="33" width="3" height="3" fill="none"/></g><g id="normal-bottom"><rect x="111" y="33" width="30" height="3" fill="none"/></g><g id="normal-bottomright"><rect x="141" y="33" width="3" height="3" fill="none"/></g>
  <rect id="hint-stretch-borders" width="1" height="1" fill="#000"/>
</svg>
