<?xml version="1.0" encoding="UTF-8"?>
<svg xmlns="http://www.w3.org/2000/svg" width="48" height="48" viewBox="0 0 48 48" shape-rendering="crispEdges">
  <rect x="2" y="2" width="44" height="44" fill="#d8cdd9" stroke="#15101f" stroke-width="3"/>
  <path d="M5 42V5h37" fill="none" stroke="#fff3ff" stroke-width="2"/>
  <path d="M11 14h5v-4h8v4h5v-4h8v4h4v13h-4v5h-4v4h-4v4H21v-4h-4v-4h-4v-5H9V14z"
        fill="#d63bac" stroke="#15101f" stroke-width="2"/>
  <path d="M13 14h5v-2h5v4h-5v4h-5z" fill="#ff8bd1"/>
  <path d="M29 36h-8v-4h-4v-4h-4v-3h4v3h4v4h8z" fill="#8f276f"/>
  <path d="M29 14h7v4h3v7h-3v-6h-7z" fill="#fff3ff" opacity=".55"/>
</svg>
